<?xml version="1.0" encoding="UTF-8" standalone="no"?>
<!DOCTYPE svg PUBLIC "-//W3C//DTD SVG 1.1//EN" "http://www.w3.org/Graphics/SVG/1.1/DTD/svg11.dtd">
<!-- Created with Vectornator (http://vectornator.io/) -->
<svg height="100%" stroke-miterlimit="10" style="fill-rule:nonzero;clip-rule:evenodd;stroke-linecap:round;stroke-linejoin:round;" version="1.1" viewBox="177.435 351.867 1043.74 486.206" width="100%" xmlSpace="preserve" xmlns="http://www.w3.org/2000/svg" xmlnsvectornator="http://vectornator.io" xmlnsXlink="http://www.w3.org/1999/xlink">
<defs/>
<g id="Desk" vectornatorlayername="Desk">
<path d="M629.8 489.429L772.554 484.964L773.528 424.155L630.851 446.083L629.8 489.429Z" fill="#f8db94" fill-rule="nonzero" opacity="1" stroke="#000000" stroke-linecap="round" stroke-linejoin="round" stroke-width="10"/>
<path d="M773.683 449.988C773.683 449.988 793.303 432.502 793.71 456.494C794.083 478.517 773.858 478.51 773.858 478.51L773.683 449.988Z" fill="#bca877" fill-rule="nonzero" opacity="1" stroke="#000000" stroke-linecap="round" stroke-linejoin="round" stroke-width="10" vectornatorlayername="R Ear"/>
<path d="M628.419 453.01C628.419 453.01 606.694 435.582 608.392 459.517C610.898 494.858 628.244 481.533 628.244 481.533L628.419 453.01Z" fill="#bca877" fill-rule="nonzero" opacity="1" stroke="#000000" stroke-linecap="round" stroke-linejoin="round" stroke-width="10" vectornatorlayername="L Ear"/>
<path d="M752.827 368.85C760.014 378.651 763.118 371.954 769.488 382.082C775.859 392.209 782.212 390.57 782.814 400.46C783.389 409.904 785.629 413.761 790.179 417.735C794.728 421.709 790.384 439.726 790.384 439.726C790.384 439.726 783.863 442.983 769.671 435.887C756.58 429.341 755.692 440.562 743.605 437.614C732.423 434.887 726.49 446.721 718.324 442.796C710.159 438.87 706.604 448.09 695.713 445.308C686.675 443 680.796 454.415 672.003 453.159C657.781 451.128 653.701 453.118 643.739 460.225C633.776 467.333 625.524 469.333 615.825 458.033C612.294 453.918 610.358 452.121 601.411 447.516C596.596 445.038 591.293 438.399 597.568 428.59C603.195 419.793 592.419 418.265 606.367 408.408C618.144 400.086 615.927 391.185 627.094 390.036C638.261 388.888 634.945 382.656 652.247 379.253C664.274 376.887 658.063 370.863 678.504 369.177C694.349 367.87 681.445 360.455 701.046 359.866C716.594 359.399 720.427 353.255 731.592 360.03C746.13 368.85 745.869 359.362 752.827 368.85Z" fill="#996b53" fill-rule="nonzero" opacity="1" stroke="#000000" stroke-linecap="round" stroke-linejoin="round" stroke-width="10" vectornatorlayername="Hair"/>
<path d="M662.92 468.763L662.884 499.155" fill="#996b53" fill-rule="nonzero" opacity="1" stroke="#000000" stroke-linecap="round" stroke-linejoin="round" stroke-width="10.5"/>
<path d="M736.909 468.933L736.872 499.325" fill="#996b53" fill-rule="nonzero" opacity="1" stroke="#000000" stroke-linecap="round" stroke-linejoin="round" stroke-width="10.5"/>
<path d="M640.645 425.921C652.711 415.443 674.711 410.509 682.597 409.775" fill="none" opacity="1" stroke="#000000" stroke-linecap="round" stroke-linejoin="round" stroke-width="5.5"/>
<path d="M630.157 434.704C630.157 433.324 631.276 432.204 632.657 432.204C634.037 432.204 635.157 433.324 635.157 434.704C635.157 436.085 634.037 437.204 632.657 437.204C631.276 437.204 630.157 436.085 630.157 434.704Z" fill="#000000" fill-rule="nonzero" opacity="1" stroke="none"/>
<path d="M621.36 434.932C621.36 433.551 622.479 432.432 623.86 432.432C625.24 432.432 626.36 433.551 626.36 434.932C626.36 436.313 625.24 437.432 623.86 437.432C622.479 437.432 621.36 436.313 621.36 434.932Z" fill="#000000" fill-rule="nonzero" opacity="1" stroke="none"/>
<path d="M720.943 377.094C720.943 375.713 722.062 374.594 723.443 374.594C724.824 374.594 725.943 375.713 725.943 377.094C725.943 378.474 724.824 379.594 723.443 379.594C722.062 379.594 720.943 378.474 720.943 377.094Z" fill="#000000" fill-rule="nonzero" opacity="1" stroke="none"/>
<path d="M750.377 393.53C750.377 393.53 748.404 403.67 759.868 409.814" fill="#ffffff" fill-rule="nonzero" opacity="1" stroke="#ffffff" stroke-linecap="round" stroke-linejoin="round" stroke-width="6"/>
<path d="M680.345 384.625C680.345 382.83 681.8 381.374 683.595 381.374C685.39 381.374 686.845 382.83 686.845 384.625C686.845 386.42 685.39 387.874 683.595 387.874C681.8 387.874 680.345 386.42 680.345 384.625Z" fill="#ffffff" fill-rule="nonzero" opacity="1" stroke="none"/>
<path d="M698.934 375.58C698.934 373.785 700.389 372.33 702.184 372.33C703.979 372.33 705.434 373.785 705.434 375.58C705.434 377.375 703.979 378.83 702.184 378.83C700.389 378.83 698.934 377.375 698.934 375.58Z" fill="#ffffff" fill-rule="nonzero" opacity="1" stroke="none"/>
<path d="M694.039 391.285C694.039 389.49 695.494 388.035 697.289 388.035C699.084 388.035 700.539 389.49 700.539 391.285C700.539 393.08 699.084 394.535 697.289 394.535C695.494 394.535 694.039 393.08 694.039 391.285Z" fill="#ffffff" fill-rule="nonzero" opacity="1" stroke="none"/>
<path d="M657.042 721.352L664.533 700.442L643.262 700.442C645.575 707.85 643.983 715.559 639.656 721.352L657.042 721.352Z" fill="#12b57b" fill-rule="nonzero" opacity="1" stroke="none"/>
<path d="M746.834 736.052L837.942 736.052L837.942 730.518L744.852 730.518L746.834 736.052Z" fill="#60718d" fill-rule="nonzero" opacity="1" stroke="none"/>
<path d="M783.151 721.352C779.777 717.395 777.82 712.464 777.61 707.188L777.465 700.442L734.076 700.442L741.567 721.352C741.567 721.352 783.151 721.352 783.151 721.352Z" fill="#12b57b" fill-rule="nonzero" opacity="1" stroke="none"/>
<path d="M541.638 686.003C561.922 686.003 582.206 686.003 602.49 686.003C673.317 686.003 744.144 686.003 814.972 686.003C818.107 686.003 819.321 688.957 818.643 691.276L863.913 691.276C869.388 691.276 873.842 686.822 873.842 681.346L873.842 491.532C873.842 486.056 869.388 481.602 863.913 481.602L534.697 481.602C529.222 481.602 524.767 486.056 524.767 491.532L524.767 681.346C524.767 686.822 529.222 691.276 534.697 691.276L537.966 691.276C537.289 688.957 538.508 686.003 541.638 686.003ZM847.638 581.669C851.505 581.669 851.499 587.669 847.638 587.669C843.771 587.669 843.778 581.669 847.638 581.669ZM850.162 666.833C845.731 666.833 845.739 659.958 850.162 659.958C854.594 659.958 854.586 666.833 850.162 666.833ZM826.771 495.923L850.832 495.923C853.838 495.923 856.274 498.36 856.274 501.365C856.274 504.37 853.837 506.807 850.832 506.807L826.771 506.807C823.765 506.807 821.329 504.37 821.329 501.365C821.329 498.36 823.765 495.923 826.771 495.923ZM789.638 584.336C801.86 584.336 814.082 584.336 826.305 584.336C830.172 584.336 830.166 590.336 826.305 590.336C814.083 590.336 801.861 590.336 789.638 590.336C785.771 590.336 785.778 584.336 789.638 584.336ZM751.628 660.722C779.89 660.722 808.152 660.722 836.414 660.722C840.845 660.722 840.837 667.597 836.414 667.597C808.152 667.597 779.89 667.597 751.628 667.597C747.197 667.596 747.204 660.722 751.628 660.722ZM706.305 502.669C711.461 502.669 711.453 510.669 706.305 510.669C701.149 510.669 701.157 502.669 706.305 502.669ZM691.638 502.669C696.794 502.669 696.786 510.669 691.638 510.669C686.482 510.669 686.49 502.669 691.638 502.669ZM699.305 553.593C717.416 553.593 732.151 568.328 732.151 586.438C732.151 604.549 717.416 619.284 699.305 619.284C681.194 619.284 666.46 604.549 666.46 586.438C666.46 568.328 681.193 553.593 699.305 553.593ZM584.972 502.669C612.083 502.669 639.194 502.669 666.305 502.669C671.461 502.669 671.453 510.669 666.305 510.669C639.194 510.669 612.083 510.669 584.972 510.669C579.815 510.669 579.823 502.669 584.972 502.669ZM546.154 501.843C550.585 501.843 550.577 508.718 546.154 508.718C541.724 508.718 541.731 501.843 546.154 501.843ZM546.154 519.411C550.585 519.411 550.577 526.286 546.154 526.286C541.724 526.286 541.731 519.411 546.154 519.411ZM546.154 536.98C550.585 536.98 550.577 543.855 546.154 543.855C541.724 543.854 541.731 536.98 546.154 536.98ZM542.717 563.332C542.717 558.901 549.592 558.909 549.592 563.332C549.592 595.159 549.592 626.985 549.592 658.812C549.592 663.243 542.717 663.235 542.717 658.812C542.717 626.986 542.717 595.159 542.717 563.332Z" fill="#a9b3c1" fill-rule="nonzero" opacity="1" stroke="none"/>
<path d="M699.305 610.118C712.362 610.118 722.984 599.495 722.984 586.439C722.984 573.382 712.361 562.76 699.305 562.76C686.248 562.76 675.626 573.383 675.626 586.439C675.625 599.495 686.248 610.118 699.305 610.118Z" fill="#e3e2d5" fill-rule="nonzero" opacity="1" stroke="none"/>
<path d="M786.633 700.442L786.772 706.907C786.92 710.597 788.527 714.088 791.298 716.65C794.068 719.213 797.686 720.54 801.435 720.392C809.202 720.092 815.278 713.55 815.017 705.791L814.624 700.441L786.633 700.441L786.633 700.442Z" fill="#f8db94" fill-rule="nonzero" opacity="1" stroke="none"/>
<path d="M603.959 700.442L607.574 711.714C609.268 716.985 613.788 720.566 618.92 721.352L623.148 721.352C623.885 721.24 624.622 721.085 625.354 720.85C632.771 718.476 636.868 710.503 634.49 703.077L633.644 700.442C633.644 700.442 603.959 700.442 603.959 700.442Z" fill="#f8db94" fill-rule="nonzero" opacity="1" stroke="none"/>
<path d="M710.571 721.257L710.571 736.052L737.098 736.052L724.34 700.442L678.837 700.442C675.837 712.581 671.996 724.458 667.321 736.052L688.037 736.052L688.037 721.257C688.037 715.044 693.091 709.99 699.304 709.99C705.516 709.989 710.571 715.043 710.571 721.257Z" fill="#60718d" fill-rule="nonzero" opacity="1" stroke="none"/>
<path d="M653.758 730.518L623.764 730.518C622.856 730.626 621.948 730.696 621.047 730.696C620.134 730.696 619.231 730.624 618.334 730.518L560.667 730.518L560.667 736.052L651.775 736.052L653.758 730.518Z" fill="#60718d" fill-rule="nonzero" opacity="1" stroke="none"/>
<path d="M584.972 510.669C612.083 510.669 639.194 510.669 666.305 510.669C671.453 510.669 671.461 502.669 666.305 502.669C639.194 502.669 612.083 502.669 584.972 502.669C579.823 502.669 579.815 510.669 584.972 510.669Z" fill="#ffffff" fill-rule="nonzero" opacity="1" stroke="none"/>
<path d="M691.638 510.669C696.786 510.669 696.794 502.669 691.638 502.669C686.49 502.669 686.482 510.669 691.638 510.669Z" fill="#ffffff" fill-rule="nonzero" opacity="1" stroke="none"/>
<path d="M706.305 510.669C711.453 510.669 711.461 502.669 706.305 502.669C701.157 502.669 701.149 510.669 706.305 510.669Z" fill="#ffffff" fill-rule="nonzero" opacity="1" stroke="none"/>
<path d="M814.972 686.003C744.145 686.003 673.317 686.003 602.49 686.003C582.206 686.003 561.922 686.003 541.638 686.003C538.508 686.003 537.29 688.957 537.966 691.276L671.043 691.276L727.567 691.276L818.642 691.276C819.321 688.957 818.107 686.003 814.972 686.003Z" fill="#ffffff" fill-rule="nonzero" opacity="1" stroke="none"/>
<path d="M674.269 700.442L661.512 736.052L667.322 736.052C671.996 724.458 675.837 712.581 678.838 700.442L674.269 700.442Z" fill="#ffffff" fill-rule="nonzero" opacity="1" stroke="none"/>
<path d="M789.638 590.336C801.86 590.336 814.082 590.336 826.305 590.336C830.166 590.336 830.172 584.336 826.305 584.336C814.083 584.336 801.861 584.336 789.638 584.336C785.778 584.336 785.771 590.336 789.638 590.336Z" fill="#ffffff" fill-rule="nonzero" opacity="1" stroke="none"/>
<path d="M699.305 619.284C717.416 619.284 732.151 604.549 732.151 586.438C732.151 568.327 717.416 553.593 699.305 553.593C681.194 553.593 666.46 568.328 666.46 586.438C666.46 604.549 681.193 619.284 699.305 619.284ZM699.305 562.759C712.362 562.759 722.984 573.382 722.984 586.438C722.984 599.495 712.361 610.117 699.305 610.117C686.248 610.117 675.626 599.494 675.626 586.438C675.625 573.382 686.248 562.759 699.305 562.759Z" fill="#0d0e1f" fill-rule="nonzero" opacity="1" stroke="none"/>
<path d="M847.638 581.669C843.777 581.669 843.771 587.669 847.638 587.669C851.498 587.669 851.505 581.669 847.638 581.669Z" fill="#ffffff" fill-rule="nonzero" opacity="1" stroke="none"/>
<path d="M826.771 506.808L850.832 506.808C853.838 506.808 856.274 504.371 856.274 501.366C856.274 498.361 853.837 495.924 850.832 495.924L826.771 495.924C823.765 495.924 821.329 498.361 821.329 501.366C821.329 504.371 823.765 506.808 826.771 506.808Z" fill="#0d0e1f" fill-rule="nonzero" opacity="1" stroke="none"/>
<path d="M549.592 658.812C549.592 626.985 549.592 595.159 549.592 563.332C549.592 558.909 542.717 558.901 542.717 563.332C542.717 595.159 542.717 626.985 542.717 658.812C542.717 663.236 549.592 663.243 549.592 658.812Z" fill="#0d0e1f" fill-rule="nonzero" opacity="1" stroke="none"/>
<path d="M546.154 543.854C550.577 543.854 550.585 536.979 546.154 536.979C541.731 536.98 541.724 543.854 546.154 543.854Z" fill="#0d0e1f" fill-rule="nonzero" opacity="1" stroke="none"/>
<path d="M546.154 526.286C550.577 526.286 550.585 519.411 546.154 519.411C541.731 519.411 541.724 526.286 546.154 526.286Z" fill="#0d0e1f" fill-rule="nonzero" opacity="1" stroke="none"/>
<path d="M546.154 508.718C550.577 508.718 550.585 501.843 546.154 501.843C541.731 501.843 541.724 508.718 546.154 508.718Z" fill="#0d0e1f" fill-rule="nonzero" opacity="1" stroke="none"/>
<path d="M751.628 667.596C779.89 667.596 808.152 667.596 836.414 667.596C840.837 667.596 840.845 660.721 836.414 660.721C808.152 660.721 779.89 660.721 751.628 660.721C747.204 660.722 747.197 667.596 751.628 667.596Z" fill="#0d0e1f" fill-rule="nonzero" opacity="1" stroke="none"/>
<path d="M850.162 659.958C845.739 659.958 845.731 666.833 850.162 666.833C854.586 666.833 854.594 659.958 850.162 659.958Z" fill="#0d0e1f" fill-rule="nonzero" opacity="1" stroke="none"/>
<path d="M847.115 736.052L847.115 725.935C847.115 723.404 845.063 721.352 842.532 721.352L818.61 721.352C822.274 717.053 824.418 711.439 824.183 705.363C824.181 705.309 824.177 705.257 824.174 705.204L823.824 700.442L863.92 700.442C874.449 700.442 883.015 691.876 883.015 681.346L883.015 491.532C883.015 481.002 874.449 472.436 863.92 472.436L534.705 472.437C524.175 472.437 515.609 481.003 515.609 491.533L515.609 681.347C515.609 691.877 524.175 700.443 534.705 700.443L594.34 700.443L598.854 714.517C599.667 717.047 600.879 719.338 602.39 721.353L556.085 721.353C553.554 721.353 551.502 723.405 551.502 725.936L551.502 736.053L847.115 736.052ZM625.352 720.849C624.62 721.085 623.883 721.239 623.146 721.351L618.918 721.351C613.786 720.565 609.266 716.984 607.572 711.713L603.957 700.441L633.642 700.441L634.488 703.076C636.868 710.503 632.771 718.475 625.352 720.849ZM643.261 700.442L664.532 700.442L657.041 721.352L639.655 721.352C643.982 715.558 645.575 707.85 643.261 700.442ZM815.019 705.791C815.28 713.549 809.204 720.092 801.437 720.392C797.688 720.541 794.07 719.214 791.3 716.65C788.529 714.088 786.922 710.597 786.774 706.907L786.635 700.442L814.627 700.442L815.019 705.791ZM777.466 700.442L777.611 707.188C777.821 712.465 779.778 717.396 783.152 721.352L741.568 721.352L734.077 700.442C734.077 700.442 777.466 700.442 777.466 700.442ZM837.942 730.518L837.942 736.052L746.834 736.052L744.851 730.518L837.942 730.518ZM524.766 681.345L524.766 491.532C524.766 486.056 529.221 481.602 534.696 481.602L863.911 481.602C869.386 481.602 873.84 486.056 873.84 491.532L873.84 681.346C873.84 686.822 869.386 691.276 863.911 691.276L818.641 691.276L727.566 691.276L671.042 691.276L537.966 691.276L534.697 691.276C529.222 691.276 524.766 686.821 524.766 681.345ZM560.667 730.518L618.334 730.518C619.231 730.624 620.134 730.696 621.047 730.696C621.948 730.696 622.855 730.626 623.764 730.518L653.758 730.518L651.776 736.052L560.668 736.052L560.668 730.518L560.667 730.518ZM688.037 721.257L688.037 736.052L667.321 736.052L661.511 736.052L674.268 700.442L678.836 700.442L724.339 700.442L737.097 736.052L710.57 736.052L710.57 721.257C710.57 715.044 705.516 709.99 699.304 709.99C693.092 709.989 688.037 715.043 688.037 721.257ZM697.203 721.257C697.203 720.098 698.145 719.156 699.304 719.156C700.462 719.156 701.404 720.098 701.404 721.257L697.203 721.257Z" fill="#0d0e1f" fill-rule="nonzero" opacity="1" stroke="none" vectornatorlayername="Curve"/>
<path d="M1208.71 751.003C1172.19 751.003 1135.67 751.003 1099.14 751.003C969.619 751.003 840.095 751.003 710.57 751.003L710.57 763.55L1211.87 763.55C1211.94 763.55 1212.01 763.486 1212.01 763.401L1212.01 749.172C1211.4 750.233 1210.3 751.003 1208.71 751.003Z" fill="#b55232" fill-rule="nonzero" opacity="1" stroke="none"/>
<path d="M687.305 751.003C650.784 751.003 614.263 751.003 577.742 751.003C447.361 751.003 316.981 751.003 186.6 751.003L186.6 763.401C186.6 763.486 186.673 763.55 186.738 763.55L688.039 763.55L688.039 750.93C687.804 750.969 687.565 751.003 687.305 751.003Z" fill="#b55232" fill-rule="nonzero" opacity="1" stroke="none"/>
<path d="M699.305 719.155C698.146 719.155 697.204 720.097 697.204 721.256L697.204 785.8C697.204 786.958 698.146 787.9 699.305 787.9C700.463 787.9 701.405 786.958 701.405 785.8L701.405 721.256C701.404 720.097 700.463 719.155 699.305 719.155Z" fill="#ca6a4f" fill-rule="nonzero" opacity="1" stroke="none"/>
<path d="M687.305 751.003C687.565 751.003 687.804 750.969 688.038 750.93L688.038 745.218L300.198 745.218L229.925 745.218L186.737 745.218C186.671 745.218 186.599 745.271 186.599 745.356L186.599 751.003C316.98 751.003 447.359 751.003 577.741 751.003C614.263 751.003 650.784 751.003 687.305 751.003Z" fill="#ffffff" fill-rule="nonzero" opacity="1" stroke="none"/>
<path d="M1208.71 751.003C1210.3 751.003 1211.4 750.233 1212.01 749.172L1212.01 745.355C1212.01 745.27 1211.94 745.217 1211.87 745.217L1201.72 745.217L1168.49 745.217L1159.33 745.217L1135.27 745.217L1126.1 745.217L1102.04 745.217L1092.87 745.217L1068.81 745.217L1059.65 745.217L1026.42 745.217L992.653 745.217L914.741 745.217L710.571 745.217L710.571 751.002C840.095 751.002 969.62 751.002 1099.14 751.002C1135.67 751.003 1172.19 751.003 1208.71 751.003Z" fill="#ffffff" fill-rule="nonzero" opacity="1" stroke="none"/>
<path d="M1211.87 736.052L186.739 736.053C181.609 736.053 177.435 740.227 177.435 745.357L177.435 763.403C177.435 768.539 181.609 772.718 186.739 772.718L688.04 772.718L688.04 785.802C688.04 792.014 693.094 797.068 699.307 797.068C705.519 797.068 710.573 792.014 710.573 785.802L710.573 772.716L1211.87 772.716C1217 772.716 1221.18 768.537 1221.18 763.401L1221.18 745.356C1221.18 740.225 1217 736.052 1211.87 736.052ZM186.737 763.55C186.672 763.55 186.599 763.486 186.599 763.401L186.599 751.003L186.599 745.356C186.599 745.271 186.671 745.218 186.737 745.218L688.038 745.218L688.038 750.93L688.038 763.55C688.038 763.55 186.737 763.55 186.737 763.55ZM688.037 721.257L688.037 736.052L710.57 736.052L710.57 721.257C710.57 715.044 705.516 709.99 699.304 709.99C693.092 709.989 688.037 715.043 688.037 721.257ZM701.404 785.801C701.404 786.959 700.462 787.901 699.304 787.901C698.145 787.901 697.203 786.959 697.203 785.801L697.203 721.257C697.203 720.098 698.145 719.156 699.304 719.156C700.462 719.156 701.404 720.098 701.404 721.257L701.404 785.801ZM1211.87 763.55L710.571 763.55L710.571 751.003L710.571 745.218L1211.87 745.218C1211.94 745.218 1212.01 745.271 1212.01 745.356L1212.01 749.173L1212.01 763.402C1212.01 763.486 1211.94 763.55 1211.87 763.55Z" fill="#0d0e1f" fill-rule="nonzero" opacity="1" stroke="none"/>
<path d="M1177.62 838.073L222.382 838.073C203.004 838.073 187.295 822.364 187.295 802.986L187.295 763.905L1212.71 763.905L1212.71 802.986C1212.7 822.364 1197 838.073 1177.62 838.073Z" fill="#33465c" fill-rule="nonzero" opacity="1" stroke="none"/>
</g>
</svg>
